HIERARCHY
ROOT Hips
{
	OFFSET	0.00	0.00	0.00
	CHANNELS 6 Xposition Yposition Zposition Zrotation Xrotation Yrotation
	JOINT LeftUpLeg
	{
		OFFSET	 0.126116	-0.014019	-0.065224
		CHANNELS 3 Zrotation Xrotation Yrotation
		JOINT LeftLeg
		{
			OFFSET	 0.000000	 0.000000	 0.569914
			CHANNELS 3 Zrotation Xrotation Yrotation
			JOINT LeftFoot
			{
				OFFSET	 0.000000	 0.000000	 0.544423
				CHANNELS 3 Zrotation Xrotation Yrotation
				JOINT LeftToeBase
				{
					OFFSET	 0.000000	 0.000000	 0.207117
					CHANNELS 3 Zrotation Xrotation Yrotation
					End Site
					{
						OFFSET	 0.000000	 0.000000	 0.207117
					}
				}
			}
		}
	}
	JOINT RightUpLeg
	{
		OFFSET	-0.124023	-0.008373	-0.065224
		CHANNELS 3 Zrotation Xrotation Yrotation
		JOINT RightLeg
		{
			OFFSET	 0.000000	 0.000000	 0.570047
			CHANNELS 3 Zrotation Xrotation Yrotation
			JOINT RightFoot
			{
				OFFSET	 0.000000	 0.000000	 0.544354
				CHANNELS 3 Zrotation Xrotation Yrotation
				JOINT RightToeBase
				{
					OFFSET	 0.000000	 0.000000	 0.207540
					CHANNELS 3 Zrotation Xrotation Yrotation
					End Site
					{
						OFFSET	 0.000000	 0.000000	 0.207540
					}
				}
			}
		}
	}
	JOINT Spine
	{
		OFFSET	 0.000184	-0.007763	 0.117403
		CHANNELS 3 Zrotation Xrotation Yrotation
		JOINT Spine1
		{
			OFFSET	 0.000000	 0.000000	 0.137269
			CHANNELS 3 Zrotation Xrotation Yrotation
			JOINT Spine2
			{
				OFFSET	 0.000000	 0.000000	 0.156879
				CHANNELS 3 Zrotation Xrotation Yrotation
				JOINT LeftShoulder
				{
					OFFSET	 0.080501	-0.002496	 0.160144
					CHANNELS 3 Zrotation Xrotation Yrotation
					JOINT LeftArm
					{
						OFFSET	 0.000000	 0.000000	 0.164363
						CHANNELS 3 Zrotation Xrotation Yrotation
						JOINT LeftForeArm
						{
							OFFSET	 0.000000	 0.000000	 0.364576
							CHANNELS 3 Zrotation Xrotation Yrotation
							JOINT LeftHand
							{
								OFFSET	 0.000000	 0.000000	 0.360812
								CHANNELS 3 Zrotation Xrotation Yrotation
								JOINT LeftHandIndex1
								{
									OFFSET	 0.000000	 0.000000	 0.086006
									CHANNELS 3 Zrotation Xrotation Yrotation
									JOINT LeftHandIndex2
									{
										OFFSET	 0.000000	 0.000000	 0.047236
										CHANNELS 3 Zrotation Xrotation Yrotation
										JOINT LeftHandIndex3
										{
											OFFSET	-0.004284	-0.000551	 0.038166
											CHANNELS 3 Zrotation Xrotation Yrotation
											End Site
											{
												OFFSET	-0.004284	-0.000551	 0.038166
											}
										}
									}
								}
							}
						}
					}
				}
				JOINT Neck
				{
					OFFSET	 0.000000	 0.000000	 0.176489
					CHANNELS 3 Zrotation Xrotation Yrotation
					JOINT Head
					{
						OFFSET	 0.000000	-0.001747	 0.077940
						CHANNELS 3 Zrotation Xrotation Yrotation
						End Site
						{
							OFFSET	 0.000000	-0.001747	 0.077940
						}
					}
				}
				JOINT RightShoulder
				{
					OFFSET	-0.080363	 0.000306	 0.159706
					CHANNELS 3 Zrotation Xrotation Yrotation
					JOINT RightArm
					{
						OFFSET	 0.000000	 0.000000	 0.164196
						CHANNELS 3 Zrotation Xrotation Yrotation
						JOINT RightForeArm
						{
							OFFSET	 0.000000	 0.000000	 0.365611
							CHANNELS 3 Zrotation Xrotation Yrotation
							JOINT RightHand
							{
								OFFSET	 0.000000	 0.000000	 0.360648
								CHANNELS 3 Zrotation Xrotation Yrotation
								JOINT RightHandIndex1
								{
									OFFSET	 0.000000	 0.000000	 0.069977
									CHANNELS 3 Zrotation Xrotation Yrotation
									JOINT RightHandIndex2
									{
										OFFSET	 0.000000	 0.000000	 0.052305
										CHANNELS 3 Zrotation Xrotation Yrotation
										JOINT RightHandIndex3
										{
											OFFSET	 0.009002	-0.000782	 0.042196
											CHANNELS 3 Zrotation Xrotation Yrotation
											End Site
											{
												OFFSET	 0.009002	-0.000782	 0.042196
											}
										}
									}
								}
							}
						}
					}
				}
			}
		}
	}
}
MOTION
Frames:    4
Frame Time: 0.03333334
 0.014179	 0.062693	 1.202302	 4.099977	-1.555546	-2.747744	 12.552590	-11.328750	-174.539300	 0.385788	-39.426350	 0.007358	 58.039810	 81.930780	-61.693730	-2.371132	 31.321970	-0.063308	-15.760000	-30.040670	-175.496300	 10.173280	-52.425160	 8.664786	 7.512811	 70.883900	-1.778548	 2.357955	 33.149220	 0.106689	-6.907715	 8.821671	 2.213773	-2.080341	 2.101106	-1.561226	 3.386081	-1.815634	 1.636409	-93.788710	 58.857740	 175.720100	 9.119132	 30.874550	-42.240440	-1.009901	-0.047524	-0.761793	-1.082776	-19.137940	-6.458240	-4.870849	 19.208410	-2.785192	-3.885885	 21.417030	 2.207178	-4.807925	 5.549459	 0.146738	-0.121175	-5.021089	 0.161066	 1.114065	 2.075468	 2.899755	 89.827070	 61.588180	-179.893100	-20.373330	 51.770450	 16.763380	-0.955157	-0.184559	 1.333459	-4.587619	-5.170480	 0.780376	 6.303254	 25.871310	-0.573583	 1.745174	 45.810100	-6.867642	 0.370620	 24.954810	 3.647905
 0.011378	 0.004813	 1.198805	 5.244092	-0.844137	-2.725396	 11.471280	-8.926513	-175.471800	 1.093457	-38.783800	 0.463999	 71.723140	 83.660640	-75.816520	-2.369164	 31.653730	-0.070808	-19.368530	-34.074090	-177.545000	 9.936609	-45.044970	 7.612144	 3.817316	 72.783000	 1.583726	 2.358943	 33.004650	 0.103330	-14.754570	 8.388111	 2.000118	-2.245731	 2.401840	-1.496369	 3.206543	-2.366427	 1.666210	-94.015590	 58.965700	 175.223500	 7.346075	 27.390660	-43.222480	-5.753478	 0.167823	-2.824790	-3.157266	-21.309980	-9.098612	-4.868209	 19.292970	-2.794229	-3.875278	 21.552680	 2.196398	-4.805502	 5.578022	 0.145065	-0.058533	-5.090681	 0.203279	 1.121896	 1.855846	 2.683107	 89.751790	 61.693570	 179.927700	-20.317330	 54.019280	 11.062520	 2.302541	-0.698001	 9.451522	-2.791625	-6.633472	 0.714357	 6.286353	 24.265790	-0.541618	 1.958714	 44.101920	-7.058266	 0.645312	 23.751540	 3.508381
 0.008252	-0.056012	 1.193975	 6.009520	-0.041666	-2.804298	 10.638390	-6.048340	-176.376600	 1.395952	-37.366120	 0.633192	 89.447580	 84.911580	-93.643100	-2.367602	 31.910940	-0.076644	-22.319160	-35.590680	-179.953400	 9.405806	-33.569300	 5.661189	-1.577814	 70.852120	 6.496381	 2.359401	 32.936690	 0.101752	-20.794860	 7.797410	 1.815392	-2.456421	 2.794086	-1.369815	 3.047745	-2.869776	 1.647172	-94.218300	 58.993330	 174.787500	 5.231551	 24.321110	-44.019090	-9.148062	 0.535469	-4.463791	-4.625528	-23.143370	-10.521100	-4.859724	 19.503610	-2.806786	-3.862845	 21.711100	 2.183766	-4.801900	 5.620532	 0.142575	-0.019510	-5.126769	 0.264103	 1.068532	 1.702746	 2.583245	 89.664930	 61.838850	 179.718600	-19.923210	 55.513500	 9.275214	 4.508812	 0.111898	 8.860922	-1.653482	-7.763109	 0.570736	 6.264511	 22.767510	-0.567881	 2.125661	 42.682850	-7.205960	 0.970381	 22.293960	 3.349457
 0.004862	-0.112233	 1.186177	 6.396982	 0.696050	-3.161121	 10.283840	-3.160258	-176.998800	 1.562555	-35.839340	 0.708446	 112.782900	 85.542100	-117.005300	-2.365038	 32.319990	-0.085988	-23.764730	-36.643960	 178.256300	 9.411156	-24.106230	 4.190042	-3.639644	 68.664150	 7.656796	 2.361286	 32.654220	 0.095218	-26.227290	 7.108966	 1.901907	-2.613797	 3.207813	-1.219507	 2.909791	-3.283496	 1.582142	-94.388980	 58.983380	 174.425500	 3.754391	 22.088790	-44.675550	-12.920040	 1.070885	-6.044192	-6.451889	-25.208610	-10.937040	-4.843884	 19.860260	-2.820752	-3.845973	 21.924940	 2.166633	-4.791937	 5.737721	 0.135702	-0.002366	-5.193774	 0.321683	 0.967561	 1.560800	 2.568535	 89.540120	 61.978220	 179.416100	-19.104850	 56.360300	 8.778291	 6.299073	 1.000613	 6.117071	-0.938670	-8.796404	-0.066784	 6.233722	 21.007360	-0.630101	 2.284580	 41.258630	-7.345354	 1.366250	 20.470380	 3.165373
